<svg width="291" height="30" viewBox="0 0 291 30" fill="none" xmlns="http://www.w3.org/2000/svg">
<path d="M21.1199 8.19019C21.1331 8.72851 21.6834 9.87517 23.7786 10.1552C26.3975 10.5052 31.1674 11.3697 30.4453 8.62792C29.7233 5.88611 25.0667 7.73612 24.019 9.14656C22.9111 10.6379 23.8905 12.0115 24.1208 12.6163C24.5094 13.2559 25.5544 14.5732 26.6255 14.7259C27.9644 14.9168 29.2379 14.8068 28.9671 13.9019C28.8046 13.3589 27.55 13.34 27.0086 13.4527C26.0337 13.572 25.4376 14.3208 25.2999 15.0734C25.0661 16.3512 26.4071 17.9038 26.4651 17.9783C26.8237 18.439 28.2029 19.2586 28.8754 19.2782C29.7507 19.3036 29.8391 19.0391 29.8391 19.0391" stroke="#BB9930" stroke-width="0.181915" stroke-linecap="round"/>
<circle cx="16.1445" cy="16.6488" r="3.09256" fill="#BB9930" stroke="#BB9930" stroke-width="0.181915"/>
<circle cx="22.1509" cy="17.0122" r="2.18298" fill="#BB9930" stroke="#BB9930" stroke-width="0.181915"/>
<circle cx="19.8713" cy="11.6457" r="2.63777" fill="#BB9930" stroke="#BB9930" stroke-width="0.181915"/>
<circle cx="12.9603" cy="11.4633" r="2.09202" fill="#BB9930" stroke="#BB9930" stroke-width="0.181915"/>
<circle cx="10.4151" cy="16.3766" r="1.91011" fill="#BB9930" stroke="#BB9930" stroke-width="0.181915"/>
<path d="M14.4614 6.92802C14.1206 7.34497 12.9826 7.91272 11.1564 6.84817C8.87366 5.51747 4.57693 3.27322 6.82947 1.55133C9.08202 -0.170551 11.6237 4.14765 11.5855 5.90424C11.5451 7.76159 9.92898 8.24521 9.37599 8.58143C8.67667 8.84798 7.04315 9.24692 6.10371 8.71023C4.92942 8.03936 3.99138 7.17106 4.76051 6.62273C5.22198 6.29374 6.22418 7.04863 6.58249 7.46988C7.27912 8.16227 7.2903 9.11934 6.93724 9.79805C6.33777 10.9504 4.32619 11.3535 4.23463 11.3768C3.66878 11.5204 2.0768 11.3213 1.53386 10.9241C0.827113 10.4071 0.919663 10.144 0.919663 10.144" stroke="#BB9930" stroke-width="0.181915" stroke-linecap="round"/>
<path d="M16.4177 11.8276C15.7966 10.8308 14.9226 8.33781 15.5334 5.31905C15.5423 5.27488 15.5516 5.23061 15.5611 5.18622C15.682 4.62604 15.8543 4.04843 16.0891 3.45947" stroke="#BB9930" stroke-width="0.545745" stroke-linecap="round"/>
<path d="M15.5098 5.7466C16.0513 5.93681 16.6639 5.97484 17.6927 5.74658" stroke="#BB9930" stroke-width="0.36383" stroke-linecap="round"/>
<circle cx="11.6925" cy="20.7418" r="1.91011" fill="#BB9930" stroke="#BB9930" stroke-width="0.181915"/>
<circle cx="15.69" cy="21.833" r="1.54628" fill="#BB9930" stroke="#BB9930" stroke-width="0.181915"/>
<circle cx="19.6944" cy="21.2872" r="1.91011" fill="#BB9930" stroke="#BB9930" stroke-width="0.181915"/>
<circle cx="15.1448" cy="25.1072" r="1.36436" fill="#BB9930" stroke="#BB9930" stroke-width="0.181915"/>
<circle cx="18.4202" cy="24.7439" r="1.36436" fill="#BB9930" stroke="#BB9930" stroke-width="0.181915"/>
<circle cx="17.3317" cy="27.4719" r="1.00053" fill="#BB9930" stroke="#BB9930" stroke-width="0.181915"/>
<circle cx="20.2399" cy="27.2907" r="1.00053" fill="#BB9930" stroke="#BB9930" stroke-width="0.181915"/>
<circle cx="9.50555" cy="12.9196" r="1.00053" fill="#BB9930" stroke="#BB9930" stroke-width="0.181915"/>
<circle cx="13.5976" cy="23.1973" r="0.545745" fill="#BB9930" stroke="#BB9930" stroke-width="0.181915"/>
<circle cx="14.2355" cy="8.37121" r="0.636703" fill="#BB9930" stroke="#BB9930" stroke-width="0.181915"/>
<circle cx="23.2402" cy="13.7378" r="0.545745" fill="#BB9930" stroke="#BB9930" stroke-width="0.181915"/>
<circle cx="19.1476" cy="28.9274" r="0.636703" fill="#BB9930" stroke="#BB9930" stroke-width="0.181915"/>
<circle cx="20.9698" cy="24.3795" r="0.636703" fill="#BB9930" stroke="#BB9930" stroke-width="0.181915"/>
<path d="M22.3022 3.15175L22.2112 3.14956L22.2112 3.14948L22.2112 3.14913L22.2113 3.14766L22.2114 3.14172L22.2119 3.11834C22.2122 3.09779 22.2127 3.06758 22.2132 3.02904C22.2141 2.95194 22.2149 2.84157 22.2144 2.70866C22.2133 2.44271 22.207 2.08719 22.1861 1.72792C22.1652 1.36779 22.1298 1.0075 22.0713 0.730534C22.042 0.591608 22.0078 0.478334 21.9692 0.397732C21.9283 0.312501 21.8929 0.285569 21.8737 0.280083C21.8395 0.270299 21.7753 0.276299 21.6734 0.317956C21.5756 0.357972 21.4585 0.42434 21.3278 0.511251C21.0667 0.684795 20.7629 0.932191 20.4686 1.18872C20.1747 1.44481 19.8926 1.70785 19.6749 1.91175C19.6597 1.92593 19.6449 1.93984 19.6304 1.95344C19.5408 2.03738 19.4634 2.10985 19.4032 2.16495C19.3682 2.19694 19.3382 2.22376 19.3145 2.2439C19.2944 2.26098 19.2699 2.2812 19.2498 2.29129C19.222 2.30521 19.1955 2.30261 19.1791 2.29833C19.1633 2.29419 19.151 2.28711 19.1432 2.28206C19.1277 2.27189 19.1137 2.25853 19.1026 2.24699C19.0795 2.22292 19.0524 2.18907 19.024 2.15168C18.9924 2.11011 18.9549 2.05831 18.915 2.00328C18.8839 1.96038 18.8514 1.91552 18.8191 1.87202C18.7433 1.76963 18.6656 1.66979 18.5956 1.59611C18.5605 1.55917 18.5297 1.5314 18.5042 1.51348C18.4796 1.49618 18.4686 1.49433 18.4687 1.49413C18.4687 1.49411 18.4689 1.49411 18.4693 1.49411C18.3393 1.49411 18.1542 1.57713 17.9563 1.76352C17.7613 1.94722 17.5641 2.22226 17.4098 2.58229C17.3161 2.80082 17.2993 3.038 17.291 3.23943C17.2903 3.2552 17.2897 3.27091 17.2891 3.28647C17.286 3.36692 17.283 3.44354 17.2744 3.50474C17.2692 3.54167 17.2612 3.57936 17.2469 3.61241C17.2324 3.6458 17.2078 3.68243 17.1652 3.7038C17.108 3.73249 16.9257 3.83184 16.7415 3.94886C16.6494 4.00731 16.5583 4.06927 16.4826 4.12828C16.4117 4.1836 16.3606 4.23154 16.3332 4.26796C16.3334 4.26827 16.3335 4.26858 16.3336 4.26891C16.34 4.28439 16.3559 4.30916 16.3865 4.34268C16.4469 4.4087 16.5465 4.48933 16.6726 4.57423C16.9239 4.74341 17.2629 4.91764 17.5567 5.01557C17.629 5.03971 17.7362 5.06777 17.8605 5.1003L17.8704 5.10289C17.9971 5.13607 18.1386 5.17329 18.2685 5.21378C18.3971 5.25384 18.5209 5.29903 18.6097 5.34973C18.6535 5.37475 18.6962 5.4052 18.7257 5.44296C18.7529 5.47785 18.7721 5.52424 18.7636 5.5762C18.7641 5.59041 18.7618 5.60341 18.7585 5.6141C18.7525 5.6339 18.7422 5.64992 18.7337 5.66123C18.7166 5.68394 18.6925 5.70626 18.6678 5.72696C18.6173 5.76929 18.5431 5.82183 18.4572 5.88167C18.4409 5.89304 18.424 5.90474 18.4067 5.91678C18.2391 6.03332 18.0267 6.18091 17.8127 6.35739C17.336 6.75052 16.8812 7.26311 16.8792 7.85516C16.8929 7.86173 16.9159 7.86985 16.9506 7.87789C17.042 7.89908 17.1758 7.91143 17.3229 7.91984C17.4084 7.92472 17.4931 7.92806 17.5743 7.93127C17.6344 7.93364 17.6926 7.93594 17.7479 7.93873C17.8108 7.94191 17.8685 7.94571 17.9155 7.95105C17.939 7.95372 17.9611 7.95693 17.9805 7.96096C17.9986 7.9647 18.0202 7.97029 18.0394 7.97989C18.0784 7.99944 18.0996 8.03445 18.1112 8.0582C18.1239 8.08419 18.1332 8.11402 18.1407 8.14231C18.1491 8.17393 18.1577 8.21445 18.166 8.25381C18.1715 8.2799 18.1769 8.30548 18.1821 8.32761C18.1969 8.39107 18.2128 8.44219 18.2326 8.47618C18.2471 8.50122 18.2572 8.50671 18.2633 8.50792C18.3755 8.4913 18.5193 8.45998 18.6868 8.42194C18.7184 8.41477 18.7508 8.40737 18.7839 8.39981C18.9293 8.36657 19.0882 8.33025 19.2529 8.2965C19.6559 8.21389 20.1033 8.14438 20.4931 8.17222C20.7505 8.19062 21.0306 8.3177 21.3076 8.48331C21.5812 8.64689 21.8632 8.85516 22.131 9.05292L22.1461 9.06407C22.4206 9.26683 22.6784 9.45638 22.9046 9.58332C23.0175 9.64666 23.1186 9.69217 23.2069 9.71622C23.2955 9.74035 23.3641 9.74097 23.4165 9.72347C23.4457 9.71376 23.4729 9.6903 23.4951 9.63821C23.5182 9.58436 23.5324 9.5069 23.5355 9.40575C23.5417 9.20398 23.5034 8.93407 23.4372 8.63393C23.3052 8.0355 23.0682 7.34087 22.8899 6.88371L22.8589 6.80437L22.936 6.76827C23.4596 6.52314 24.2307 6.10897 24.8426 5.66404C25.149 5.44122 25.4108 5.21395 25.5821 4.99949C25.7565 4.78107 25.8196 4.5982 25.7786 4.45453C25.7595 4.38777 25.7015 4.31206 25.5956 4.23044C25.4913 4.15002 25.3498 4.07112 25.181 3.99506C24.8437 3.84307 24.4107 3.70839 23.9805 3.59621C23.551 3.48422 23.1277 3.39553 22.8116 3.33481C22.6536 3.30446 22.5225 3.28113 22.4311 3.2654C22.3853 3.25754 22.3495 3.25157 22.3251 3.24758L22.2974 3.24309L22.2904 3.24197L22.2886 3.24169L22.2882 3.24163L22.2881 3.24161L22.3022 3.15175ZM22.3022 3.15175L22.2112 3.14958L22.2093 3.22927L22.2881 3.24161L22.3022 3.15175Z" fill="#BB9930" stroke="#BB9930" stroke-width="0.181915" stroke-linecap="round"/>
<path d="M64.6612 0.514076V0.624236C64.0924 0.624236 63.5977 0.807834 63.1772 1.17503C62.7568 1.51775 62.5465 1.97062 62.5465 2.53366V29.4492H62.0271L48.6712 2.57038V27.4663C48.6712 28.0294 48.8814 28.4945 49.3019 28.8617C49.7224 29.2044 50.217 29.3758 50.7859 29.3758V29.4492H46V29.3758C46.5689 29.3758 47.0635 29.2044 47.484 28.8617C47.9045 28.4945 48.1147 28.0294 48.1147 27.4663V2.64382C48.1147 2.0563 47.9045 1.57895 47.484 1.21175C47.0883 0.820074 46.5936 0.624236 46 0.624236V0.514076H49.2277L62.0271 26.2913V2.49694C62.0271 1.9339 61.8045 1.48103 61.3593 1.13831C60.9389 0.795594 60.4442 0.624236 59.8753 0.624236V0.514076H64.6612Z" fill="#BB9930"/>
<path d="M76.048 0.514076C77.4083 0.514076 78.6821 0.893513 79.8693 1.65239C81.0812 2.41126 82.1324 3.45165 83.0227 4.77356C83.9131 6.07099 84.6057 7.60098 85.1003 9.36352C85.6197 11.1261 85.8794 12.9988 85.8794 14.9816C85.8794 16.989 85.6197 18.8739 85.1003 20.6365C84.6057 22.3745 83.9131 23.9045 83.0227 25.2264C82.1324 26.5239 81.0812 27.552 79.8693 28.3109C78.6821 29.0698 77.4083 29.4492 76.048 29.4492C74.6877 29.4492 73.4139 29.0698 72.2267 28.3109C71.0395 27.552 70.0007 26.5239 69.1103 25.2264C68.2199 23.9045 67.515 22.3745 66.9956 20.6365C66.4762 18.8739 66.2165 16.989 66.2165 14.9816C66.2165 12.9988 66.4762 11.1261 66.9956 9.36352C67.515 7.60098 68.2199 6.07099 69.1103 4.77356C70.0007 3.45165 71.0395 2.41126 72.2267 1.65239C73.4139 0.893513 74.6877 0.514076 76.048 0.514076ZM76.048 28.9351C77.1857 28.9351 78.2369 28.5679 79.2015 27.8335C80.1908 27.0991 81.0317 26.1077 81.7243 24.8592C82.4415 23.5863 82.998 22.1053 83.3937 20.4162C83.8142 18.727 84.0244 16.9155 84.0244 14.9816C84.0244 13.0477 83.8142 11.2362 83.3937 9.54712C82.998 7.85802 82.4415 6.38923 81.7243 5.14076C81.0317 3.86781 80.1908 2.86414 79.2015 2.12974C78.2369 1.39535 77.1857 1.02815 76.048 1.02815C74.9102 1.02815 73.8591 1.39535 72.8945 2.12974C71.9299 2.86414 71.089 3.86781 70.3717 5.14076C69.6544 6.38923 69.0856 7.85802 68.6651 9.54712C68.2694 11.2362 68.0715 13.0477 68.0715 14.9816C68.0715 16.9155 68.2694 18.727 68.6651 20.4162C69.0856 22.1053 69.6544 23.5863 70.3717 24.8592C71.089 26.1077 71.9299 27.0991 72.8945 27.8335C73.8591 28.5679 74.9102 28.9351 76.048 28.9351Z" fill="#BB9930"/>
<path d="M89.5622 27.3562V2.64382C89.5622 2.0563 89.3519 1.56671 88.9315 1.17503C88.5357 0.783355 88.0411 0.587516 87.4475 0.587516V0.514076H96.3885C97.4273 0.514076 98.4043 0.709915 99.3194 1.10159C100.235 1.46879 101.026 1.98286 101.694 2.64382C102.362 3.28029 102.881 4.03917 103.252 4.92044C103.648 5.77723 103.846 6.70747 103.846 7.71114C103.821 9.25337 103.376 10.6365 102.51 11.8605C101.669 13.06 100.556 13.929 99.171 14.4676C100.086 14.5655 100.939 14.8348 101.731 15.2754C102.547 15.716 103.252 16.2668 103.846 16.9278C104.439 17.5887 104.897 18.3476 105.218 19.2044C105.565 20.0612 105.738 20.967 105.738 21.9217C105.738 22.9498 105.54 23.929 105.144 24.8592C104.748 25.765 104.217 26.5606 103.549 27.246C102.881 27.9315 102.09 28.47 101.174 28.8617C100.284 29.2534 99.3194 29.4492 98.2806 29.4492H87.4475V29.3758C88.0411 29.3758 88.5357 29.1799 88.9315 28.7882C89.3519 28.3966 89.5622 27.9192 89.5622 27.3562ZM91.1946 27.7234C91.1946 28.0661 91.3059 28.3599 91.5285 28.6046C91.7758 28.825 92.0726 28.9351 92.4189 28.9351H97.0192C97.9591 28.9351 98.8371 28.7515 99.6533 28.3843C100.494 28.0171 101.224 27.5153 101.842 26.8788C102.461 26.2423 102.943 25.4957 103.289 24.6389C103.66 23.7821 103.846 22.8764 103.846 21.9217C103.846 20.967 103.66 20.0612 103.289 19.2044C102.918 18.3476 102.423 17.6132 101.805 17.0012C101.187 16.3647 100.457 15.8629 99.6162 15.4957C98.8 15.1285 97.9096 14.9449 96.945 14.9449C96.7472 14.9449 96.5369 14.9572 96.3144 14.9816C96.0918 15.0061 95.8815 15.0428 95.6837 15.0918C95.4363 15.1408 95.189 15.202 94.9417 15.2754L94.9046 15.1652C95.1024 15.0918 95.2879 15.0184 95.4611 14.9449C95.6342 14.896 95.8197 14.847 96.0176 14.798C96.2154 14.7246 96.4009 14.6634 96.574 14.6144C97.3408 14.4186 98.058 14.1004 98.7258 13.6597C99.3936 13.2191 99.9625 12.6928 100.432 12.0808C100.927 11.4688 101.31 10.7956 101.583 10.0612C101.855 9.32681 101.991 8.55569 101.991 7.74786C101.991 6.86659 101.83 6.02203 101.508 5.2142C101.187 4.40637 100.729 3.69645 100.136 3.08445C99.5668 2.44798 98.899 1.94614 98.1322 1.57895C97.3655 1.21175 96.5369 1.02815 95.6466 1.02815H92.4189C92.0726 1.02815 91.7758 1.15055 91.5285 1.39535C91.3059 1.61567 91.1946 1.89718 91.1946 2.2399V27.7234Z" fill="#BB9930"/>
<path d="M113.163 0.514076V0.587516C112.57 0.587516 112.063 0.783355 111.642 1.17503C111.247 1.56671 111.049 2.04406 111.049 2.6071V27.7234C111.049 28.0661 111.16 28.3599 111.383 28.6046C111.63 28.825 111.927 28.9351 112.273 28.9351H119.396C120.039 28.9106 120.621 28.7026 121.14 28.3109C121.684 27.9192 122.006 27.4174 122.105 26.8054H122.216L121.845 29.9633H121.771C121.771 29.8409 121.709 29.7185 121.585 29.5961C121.486 29.4982 121.375 29.4492 121.251 29.4492H107.302V29.339C107.895 29.339 108.39 29.1554 108.786 28.7882C109.206 28.3966 109.416 27.907 109.416 27.3195V2.64382C109.416 2.0563 109.206 1.56671 108.786 1.17503C108.39 0.783355 107.895 0.587516 107.302 0.587516V0.514076H113.163Z" fill="#BB9930"/>
<path d="M137.663 0.514076C137.811 0.514076 137.935 0.465116 138.034 0.367197C138.133 0.244798 138.182 0.122399 138.182 0H138.256L138.627 3.12118L138.516 3.1579C138.417 2.52142 138.096 2.00734 137.551 1.61567C137.032 1.22399 136.451 1.02815 135.808 1.02815H128.647C128.301 1.02815 128.017 1.15055 127.794 1.39535C127.596 1.61567 127.497 1.89718 127.497 2.2399V14.7246H133.99C134.559 14.7246 135.016 14.5165 135.363 14.1004C135.709 13.6597 135.882 13.1579 135.882 12.5949H135.993V17.3317H135.882C135.882 16.7687 135.709 16.2791 135.363 15.8629C135.016 15.4468 134.559 15.2387 133.99 15.2387H127.497V27.7234C127.497 28.0661 127.609 28.3599 127.831 28.6046C128.079 28.825 128.375 28.9351 128.722 28.9351H137.18C137.823 28.9351 138.417 28.7393 138.961 28.3476C139.53 27.9559 139.839 27.4419 139.889 26.8054L140 26.8421L139.629 30H139.555C139.555 29.8531 139.505 29.7185 139.406 29.5961C139.307 29.4982 139.184 29.4492 139.035 29.4492H123.75V29.339C124.344 29.339 124.839 29.1432 125.234 28.7515C125.655 28.3599 125.865 27.8825 125.865 27.3195V2.64382C125.865 2.03182 125.655 1.54223 125.234 1.17503C124.839 0.783355 124.344 0.587516 123.75 0.587516V0.514076H137.663Z" fill="#BB9930"/>
<path d="M175.517 0.550122V0.660147C174.892 0.660147 174.348 0.843521 173.885 1.21027C173.423 1.55257 173.192 2.00489 173.192 2.56724V29.4499H172.621L157.937 2.60391V27.4694C157.937 28.0318 158.168 28.4963 158.63 28.8631C159.093 29.2054 159.636 29.3765 160.262 29.3765V29.4499H155V29.3765C155.625 29.3765 156.169 29.2054 156.632 28.8631C157.094 28.4963 157.325 28.0318 157.325 27.4694V2.67726C157.325 2.09047 157.094 1.61369 156.632 1.24694C156.196 0.855746 155.653 0.660147 155 0.660147V0.550122H158.549L172.621 26.2958V2.53056C172.621 1.96822 172.376 1.51589 171.887 1.17359C171.425 0.831296 170.881 0.660147 170.255 0.660147V0.550122H175.517Z" fill="#BB9930"/>
<path d="M192.523 0.550122C192.686 0.550122 192.822 0.501222 192.931 0.403422C193.04 0.281173 193.094 0.158924 193.094 0.0366743H193.176L193.584 3.15404L193.461 3.19071C193.352 2.55501 192.999 2.04156 192.401 1.65037C191.83 1.25917 191.191 1.06357 190.484 1.06357H182.611C182.231 1.06357 181.918 1.18582 181.673 1.43032C181.456 1.65037 181.347 1.93154 181.347 2.27384V14.7433H188.485C189.11 14.7433 189.613 14.5355 189.994 14.1198C190.375 13.6797 190.565 13.1785 190.565 12.6161H190.688V17.3472H190.565C190.565 16.7848 190.375 16.2958 189.994 15.8802C189.613 15.4645 189.11 15.2567 188.485 15.2567H181.347V27.7262C181.347 28.0685 181.469 28.3619 181.714 28.6064C181.986 28.8264 182.312 28.9364 182.693 28.9364H191.993C192.7 28.9364 193.352 28.7408 193.951 28.3496C194.576 27.9584 194.916 27.445 194.97 26.8093L195.093 26.846L194.685 30H194.603C194.603 29.8533 194.549 29.7188 194.44 29.5966C194.331 29.4988 194.195 29.4499 194.032 29.4499H177.227V29.3399C177.88 29.3399 178.424 29.1443 178.859 28.7531C179.321 28.3619 179.552 27.8851 179.552 27.3227V2.67726C179.552 2.06601 179.321 1.57702 178.859 1.21027C178.424 0.819071 177.88 0.623473 177.227 0.623473V0.550122H192.523Z" fill="#BB9930"/>
<path d="M195.112 15C195.112 12.9951 195.466 11.1247 196.173 9.38875C196.88 7.62836 197.845 6.10024 199.069 4.8044C200.292 3.48411 201.72 2.44499 203.352 1.68704C204.983 0.929095 206.724 0.550122 208.573 0.550122H211.346C211.564 0.550122 211.727 0.501222 211.836 0.403422C211.945 0.281173 211.999 0.146699 211.999 0H212.121L215.262 3.15404L215.181 3.19071C214.691 2.72616 214.188 2.35941 213.671 2.09046C213.182 1.79707 212.706 1.57702 212.244 1.43032C211.781 1.28362 211.346 1.18582 210.938 1.13692C210.531 1.08802 210.177 1.06357 209.878 1.06357H209.348C207.635 1.06357 206.03 1.43032 204.535 2.16381C203.039 2.89731 201.747 3.89975 200.66 5.17115C199.572 6.41809 198.715 7.88509 198.09 9.57213C197.464 11.2592 197.152 13.0685 197.152 15C197.152 16.9315 197.464 18.7408 198.09 20.4279C198.715 22.1149 199.572 23.5941 200.66 24.8655C201.747 26.1125 203.039 27.1027 204.535 27.8362C206.03 28.5697 207.635 28.9364 209.348 28.9364C210.599 28.9364 211.795 28.7408 212.937 28.3496C214.079 27.9584 215.14 27.4083 216.119 26.6993L216.159 26.8093C215.072 27.6406 213.875 28.2885 212.57 28.7531C211.292 29.2176 209.919 29.4499 208.45 29.4499C206.628 29.4499 204.902 29.0709 203.27 28.313C201.638 27.555 200.224 26.5281 199.028 25.2323C197.831 23.912 196.88 22.3839 196.173 20.6479C195.466 18.8875 195.112 17.0049 195.112 15Z" fill="#BB9930"/>
<path d="M216.989 0H217.112C217.112 0.342298 217.302 0.513447 217.683 0.513447H236.038C236.419 0.513447 236.609 0.342298 236.609 0H236.691L237.098 3.15404L236.976 3.19071C236.813 2.57946 236.459 2.07824 235.916 1.68704C235.372 1.27139 234.733 1.06357 233.998 1.06357H229.104C228.723 1.06357 228.397 1.18582 228.125 1.43032C227.88 1.65037 227.758 1.93154 227.758 2.27384V27.3227C227.758 27.8851 227.989 28.3619 228.451 28.7531C228.913 29.1443 229.457 29.3399 230.083 29.3399V29.4499H223.638V29.3399C224.263 29.3399 224.807 29.132 225.27 28.7164C225.759 28.3007 226.004 27.8362 226.004 27.3227V2.27384C226.004 1.93154 225.868 1.65037 225.596 1.43032C225.351 1.18582 225.038 1.06357 224.658 1.06357H219.722C218.988 1.06357 218.349 1.27139 217.805 1.68704C217.261 2.07824 216.908 2.57946 216.745 3.19071L216.622 3.15404L216.989 0Z" fill="#BB9930"/>
<path d="M231.839 29.3765C232.573 29.3765 233.198 29.1932 233.715 28.8264C234.259 28.4597 234.612 27.9584 234.775 27.3227L241.546 4.29095C241.737 3.65526 241.723 3.01956 241.506 2.38386C241.288 1.74817 241.098 1.13692 240.935 0.550122H243.219C243.137 0.819071 243.069 1.06357 243.015 1.28362C242.96 1.47922 242.974 1.71149 243.056 1.98044L250.602 27.6161C250.629 27.665 250.683 27.7873 250.765 27.9829C250.874 28.1785 251.037 28.3863 251.254 28.6064C251.472 28.802 251.757 28.9853 252.111 29.1565C252.492 29.3032 252.94 29.3765 253.457 29.3765V29.4499H247.624V29.3765C247.95 29.3521 248.222 29.2787 248.44 29.1565C248.63 29.0587 248.78 28.9242 248.888 28.7531C249.024 28.5575 249.038 28.2885 248.929 27.9462L245.299 15.5868H238.854L235.224 27.8362C235.115 28.1785 235.115 28.4597 235.224 28.6797C235.36 28.8753 235.523 29.0342 235.714 29.1565C235.931 29.2787 236.203 29.3521 236.529 29.3765V29.4499H231.839V29.3765ZM238.977 15.0733H245.136L242.077 4.47433L238.977 15.0733Z" fill="#BB9930"/>
<path d="M255.181 0.660147V0.550122H260.606C261.721 0.550122 262.754 0.733496 263.706 1.10024C264.685 1.44254 265.541 1.91931 266.276 2.53056C267.01 3.14181 267.581 3.85085 267.989 4.6577C268.424 5.46455 268.641 6.32029 268.641 7.22494C268.641 8.00734 268.478 8.76528 268.152 9.49878C267.826 10.2078 267.363 10.8435 266.765 11.4059C266.194 11.9682 265.501 12.4572 264.685 12.8729C263.896 13.2641 263.04 13.5452 262.115 13.7164C263.04 13.9609 263.978 14.3643 264.93 14.9267C265.908 15.4645 266.792 16.2592 267.581 17.3105C268.397 18.3619 269.063 19.7066 269.58 21.3447C270.123 22.9584 270.395 24.9511 270.395 27.3227V27.3594C270.368 27.9218 270.586 28.3985 271.048 28.7897C271.537 29.1809 272.095 29.3765 272.72 29.3765V29.4499H269.498C269.253 29.4499 269.036 29.3765 268.845 29.2298C268.682 29.0587 268.601 28.8631 268.601 28.643V25.1589C268.601 24.5232 268.546 23.802 268.437 22.9951C268.329 22.1883 268.138 21.3692 267.866 20.5379C267.622 19.7066 267.268 18.8998 266.806 18.1174C266.371 17.3105 265.813 16.6015 265.133 15.9902C264.454 15.3545 263.624 14.8533 262.645 14.4866C261.694 14.0954 260.579 13.8998 259.301 13.8998V27.4328C259.301 27.9951 259.532 28.4597 259.994 28.8264C260.456 29.1932 261 29.3765 261.626 29.3765V29.4499H255.181V29.3765C255.806 29.3765 256.35 29.1932 256.812 28.8264C257.275 28.4597 257.506 28.0073 257.506 27.4694V2.67726C257.506 2.09047 257.275 1.61369 256.812 1.24694C256.377 0.855746 255.834 0.660147 255.181 0.660147ZM259.301 13.3496C260.388 13.3985 261.394 13.3007 262.319 13.0562C263.244 12.7873 264.046 12.3839 264.726 11.846C265.405 11.3081 265.936 10.6479 266.316 9.86553C266.697 9.08313 266.887 8.20293 266.887 7.22494C266.887 6.36919 266.738 5.57457 266.439 4.84108C266.167 4.08313 265.759 3.43521 265.215 2.89731C264.671 2.33496 264.005 1.89487 263.216 1.57702C262.428 1.23472 261.544 1.06357 260.565 1.06357C260.212 1.06357 259.912 1.17359 259.668 1.39364C259.423 1.61369 259.301 1.87042 259.301 2.16381V13.3496Z" fill="#BB9930"/>
<path d="M273.705 26.7359C274.739 27.6406 275.731 28.2274 276.683 28.4963C277.635 28.7653 278.423 28.8998 279.049 28.8998H281.904C282.883 28.8998 283.794 28.7164 284.637 28.3496C285.507 27.9584 286.255 27.445 286.88 26.8093C287.533 26.1736 288.036 25.4401 288.389 24.6088C288.743 23.7531 288.92 22.8606 288.92 21.9315C288.92 20.978 288.729 20.0856 288.349 19.2543C287.968 18.423 287.438 17.7017 286.758 17.0905C286.078 16.4548 285.289 15.9535 284.392 15.5868C283.495 15.22 282.529 15.0245 281.496 15C280.327 14.9756 279.253 14.7677 278.274 14.3765C277.322 13.9853 276.493 13.4597 275.786 12.7995C275.106 12.1394 274.575 11.3814 274.195 10.5257C273.814 9.64548 273.624 8.72861 273.624 7.77506C273.624 6.77262 273.841 5.8313 274.276 4.9511C274.711 4.0709 275.296 3.31296 276.03 2.67726C276.765 2.01712 277.621 1.50367 278.6 1.13692C279.606 0.745721 280.68 0.550122 281.822 0.550122H285.004C285.222 0.550122 285.385 0.501222 285.493 0.403422C285.602 0.281173 285.657 0.146699 285.657 0H285.779L288.92 3.15404L288.879 3.22738C287.846 2.32274 286.853 1.73594 285.901 1.46699C284.95 1.19804 284.161 1.06357 283.536 1.06357H282.516C281.265 1.06357 280.204 1.24694 279.334 1.61369C278.464 1.98044 277.757 2.46944 277.213 3.08068C276.669 3.69193 276.275 4.40098 276.03 5.20782C275.813 6.01467 275.704 6.85819 275.704 7.73839C275.704 8.49633 275.84 9.27873 276.112 10.0856C276.411 10.8924 276.805 11.6137 277.295 12.2494C277.784 12.8851 278.369 13.4108 279.049 13.8264C279.729 14.2421 280.476 14.4499 281.292 14.4499H282.801C283.943 14.4499 285.004 14.6455 285.983 15.0367C286.989 15.4279 287.859 15.9658 288.593 16.6504C289.328 17.3105 289.912 18.1051 290.347 19.0342C290.782 19.9389 291 20.9169 291 21.9682C291 22.9951 290.782 23.9731 290.347 24.9022C289.939 25.8068 289.368 26.6015 288.634 27.2861C287.9 27.9462 287.057 28.4719 286.105 28.8631C285.154 29.2543 284.147 29.4499 283.087 29.4499H277.458C277.268 29.4499 277.118 29.4988 277.009 29.5966C276.928 29.7188 276.887 29.8411 276.887 29.9633H276.805L273.624 26.8093L273.705 26.7359Z" fill="#BB9930"/>
</svg>
